<?xml version="1.0" standalone="no"?><!DOCTYPE svg PUBLIC "-//W3C//DTD SVG 1.1//EN" "http://www.w3.org/Graphics/SVG/1.1/DTD/svg11.dtd"><svg t="1632132083458" class="icon" viewBox="0 0 1024 1024" version="1.1" xmlns="http://www.w3.org/2000/svg" p-id="1268" xmlns:xlink="http://www.w3.org/1999/xlink" width="16" height="16"><defs><style type="text/css"></style></defs><path d="M512.1 73.6c241.7 0 438.3 196.7 438.3 438.4S753.8 950.3 512.1 950.3C270.3 950.4 73.6 753.7 73.6 512S270.3 73.6 512.1 73.6M512.1 9.2C234.4 9.2 9.2 234.4 9.2 512s225.1 502.8 502.8 502.8 502.8-225.1 502.8-502.8C1014.8 234.4 789.7 9.2 512.1 9.2L512.1 9.2z" p-id="1269"></path><path d="M307.2 543.232c-5.632 0-10.24-4.608-10.24-10.752l0-41.472c0-5.632 4.608-10.24 10.24-10.24l409.6 0c5.632 0 10.24 4.608 10.24 10.24l0 41.472c0 5.632-4.608 10.752-10.24 10.752L307.2 543.232z" p-id="1270"></path><path d="M491.008 727.04c-5.632 0-10.24-4.608-10.24-10.24L480.768 307.2c0-5.632 4.608-10.24 10.24-10.24l41.472 0c5.632 0 10.752 4.608 10.752 10.24l0 409.6c0 5.632-4.608 10.24-10.752 10.24L491.008 727.04z" p-id="1271"></path></svg>